<svg xmlns="http://www.w3.org/2000/svg" viewBox="0 0 32 36">
  <path d="M3 3 H29 V19 C29 27 23.5 31 16 34 C8.5 31 3 27 3 19 Z" fill="#A5332B" stroke="#C9A15A" stroke-width="2"/>
  <path d="M5 5 H27 V18.6 C27 25.3 22.3 28.8 16 31.5 C9.7 28.8 5 25.3 5 18.6 Z" fill="none" stroke="#E7C982" stroke-width=".7" opacity=".6"/>
  <g fill="#F1CE6E">
    <g transform="translate(11,11.4) scale(.8)"><path d="M0,-2.6 L0.59,-0.81 L2.47,-0.8 L0.95,0.31 L1.53,2.1 L0,1.04 L-1.53,2.1 L-0.95,0.31 L-2.47,-0.8 L-0.59,-0.81 Z"/></g>
    <g transform="translate(21,11.4) scale(.8)"><path d="M0,-2.6 L0.59,-0.81 L2.47,-0.8 L0.95,0.31 L1.53,2.1 L0,1.04 L-1.53,2.1 L-0.95,0.31 L-2.47,-0.8 L-0.59,-0.81 Z"/></g>
    <g transform="translate(16,18.9) scale(.8)"><path d="M0,-2.6 L0.59,-0.81 L2.47,-0.8 L0.95,0.31 L1.53,2.1 L0,1.04 L-1.53,2.1 L-0.95,0.31 L-2.47,-0.8 L-0.59,-0.81 Z"/></g>
  </g>
  <path d="M7 25.2 q2.25 -2 4.5 0 t4.5 0 t4.5 0 t4.5 0" fill="none" stroke="#F1CE6E" stroke-width="1.7" stroke-linecap="round"/>
</svg>
