<svg xmlns="http://www.w3.org/2000/svg" viewBox="0 0 32 36">
  <path d="M3 3 H29 V19 C29 27 23.5 31 16 34 C8.5 31 3 27 3 19 Z" fill="#A5332B" stroke="#CBA15A" stroke-width="2"/>
  <g fill="#F1CE6E">
    <g transform="translate(11,11.6) scale(.82)"><path d="M0,-2.6 L0.59,-0.81 L2.47,-0.8 L0.95,0.31 L1.53,2.1 L0,1.04 L-1.53,2.1 L-0.95,0.31 L-2.47,-0.8 L-0.59,-0.81 Z"/></g>
    <g transform="translate(21,11.6) scale(.82)"><path d="M0,-2.6 L0.59,-0.81 L2.47,-0.8 L0.95,0.31 L1.53,2.1 L0,1.04 L-1.53,2.1 L-0.95,0.31 L-2.47,-0.8 L-0.59,-0.81 Z"/></g>
    <g transform="translate(16,19.4) scale(.82)"><path d="M0,-2.6 L0.59,-0.81 L2.47,-0.8 L0.95,0.31 L1.53,2.1 L0,1.04 L-1.53,2.1 L-0.95,0.31 L-2.47,-0.8 L-0.59,-0.81 Z"/></g>
  </g>
  <path d="M7.5 25 q2.8 -2.2 5.6 0 t5.6 0 t4.3 0" fill="none" stroke="#F1CE6E" stroke-width="2" stroke-linecap="round"/>
</svg>
